<mxfile host="app.diagrams.net" modified="2024-02-16T22:35:16.099Z" agent="Mozilla/5.0 (Macintosh; Intel Mac OS X 10_15_7) AppleWebKit/537.36 (KHTML, like Gecko) Chrome/120.0.0.0 Safari/537.36" etag="Qg9cqpxfRyzxxfXTz2_d" version="23.1.3" type="github">
  <diagram name="Page-1" id="c7558073-3199-34d8-9f00-42111426c3f3">
    <mxGraphModel dx="1730" dy="1080" grid="1" gridSize="10" guides="1" tooltips="1" connect="1" arrows="1" fold="1" page="1" pageScale="1" pageWidth="1169" pageHeight="827" background="none" math="0" shadow="0">
      <root>
        <mxCell id="0" />
        <mxCell id="1" parent="0" />
        <mxCell id="VQFhBbpkEpRgzwUV9zI0-108" value="&lt;p style=&quot;margin: 0px; margin-top: 4px; text-align: center; text-decoration: underline;&quot;&gt;&lt;strong&gt;Object Tracking&lt;/strong&gt;&lt;/p&gt;&lt;hr&gt;&lt;p style=&quot;margin: 0px; margin-left: 8px;&quot;&gt;&lt;/p&gt;&lt;ul&gt;&lt;li style=&quot;text-align: left;&quot;&gt;&lt;span style=&quot;background-color: initial;&quot;&gt;OpenMV&lt;/span&gt;&lt;/li&gt;&lt;li style=&quot;text-align: left;&quot;&gt;&lt;span style=&quot;background-color: initial;&quot;&gt;Image Selection&lt;/span&gt;&lt;/li&gt;&lt;li style=&quot;text-align: left;&quot;&gt;&lt;span style=&quot;background-color: initial;&quot;&gt;Target Offset Calculation&lt;/span&gt;&lt;/li&gt;&lt;/ul&gt;&lt;p&gt;&lt;/p&gt;&lt;p style=&quot;margin: 0px; margin-left: 8px;&quot;&gt;&lt;br&gt;&lt;/p&gt;" style="verticalAlign=middle;align=center;overflow=fill;fontSize=12;fontFamily=Helvetica;html=1;rounded=1;fontStyle=1;strokeWidth=3;fillColor=#3399FF;movable=1;resizable=1;rotatable=1;deletable=1;editable=1;locked=0;connectable=1;" vertex="1" parent="1">
          <mxGeometry x="400" y="85" width="240" height="95" as="geometry" />
        </mxCell>
        <mxCell id="VQFhBbpkEpRgzwUV9zI0-116" value="" style="group" vertex="1" connectable="0" parent="1">
          <mxGeometry x="1000" y="700" width="146" height="100" as="geometry" />
        </mxCell>
        <mxCell id="VQFhBbpkEpRgzwUV9zI0-115" value="" style="image;aspect=fixed;perimeter=ellipsePerimeter;html=1;align=center;shadow=0;dashed=0;spacingTop=3;image=img/lib/active_directory/internet_cloud.svg;" vertex="1" parent="VQFhBbpkEpRgzwUV9zI0-116">
          <mxGeometry width="146" height="91.97999999999999" as="geometry" />
        </mxCell>
        <mxCell id="VQFhBbpkEpRgzwUV9zI0-102" value="" style="outlineConnect=0;dashed=0;verticalLabelPosition=bottom;verticalAlign=top;align=center;html=1;shape=mxgraph.aws3.cloud_2;fillColor=#F58534;gradientColor=none;" vertex="1" parent="VQFhBbpkEpRgzwUV9zI0-116">
          <mxGeometry x="53.18099547511312" y="16.433239962651722" width="49.547511312217196" height="53.86770092652445" as="geometry" />
        </mxCell>
        <mxCell id="VQFhBbpkEpRgzwUV9zI0-117" value="&lt;p style=&quot;margin: 0px; margin-top: 4px; text-align: center; text-decoration: underline;&quot;&gt;&lt;strong&gt;Message Handler&lt;/strong&gt;&lt;/p&gt;&lt;hr&gt;&lt;p style=&quot;margin: 0px; margin-left: 8px;&quot;&gt;&lt;span style=&quot;background-color: initial;&quot;&gt;MQTT Client&lt;/span&gt;&lt;br&gt;&lt;/p&gt;" style="verticalAlign=middle;align=center;overflow=fill;fontSize=12;fontFamily=Helvetica;html=1;rounded=1;fontStyle=1;strokeWidth=3;fillColor=#3399FF;movable=1;resizable=1;rotatable=1;deletable=1;editable=1;locked=0;connectable=1;" vertex="1" parent="1">
          <mxGeometry x="630" y="540" width="150" height="120" as="geometry" />
        </mxCell>
        <mxCell id="VQFhBbpkEpRgzwUV9zI0-119" value="&lt;p style=&quot;margin: 0px; margin-top: 4px; text-align: center; text-decoration: underline;&quot;&gt;Spray Controller&lt;/p&gt;&lt;hr&gt;&lt;p style=&quot;margin: 0px; margin-left: 8px;&quot;&gt;&lt;br&gt;&lt;/p&gt;" style="verticalAlign=middle;align=center;overflow=fill;fontSize=12;fontFamily=Helvetica;html=1;rounded=1;fontStyle=1;strokeWidth=3;fillColor=#3399FF;movable=1;resizable=1;rotatable=1;deletable=1;editable=1;locked=0;connectable=1;" vertex="1" parent="1">
          <mxGeometry x="820" y="240" width="134" height="100" as="geometry" />
        </mxCell>
        <mxCell id="VQFhBbpkEpRgzwUV9zI0-120" value="&lt;p style=&quot;margin: 4px 0px 0px; text-decoration: underline;&quot;&gt;Pan/Tilt Controller&lt;/p&gt;&lt;hr&gt;&lt;p style=&quot;margin: 0px 0px 0px 8px;&quot;&gt;&lt;/p&gt;&lt;ul&gt;&lt;li style=&quot;text-align: left;&quot;&gt;V1 = Servo&lt;/li&gt;&lt;li style=&quot;text-align: left;&quot;&gt;V2 = Stepper Motor&lt;/li&gt;&lt;/ul&gt;&lt;p&gt;&lt;/p&gt;" style="verticalAlign=middle;align=center;overflow=fill;fontSize=12;fontFamily=Helvetica;html=1;rounded=1;fontStyle=1;strokeWidth=3;fillColor=#3399FF;movable=1;resizable=1;rotatable=1;deletable=1;editable=1;locked=0;connectable=1;" vertex="1" parent="1">
          <mxGeometry x="780" y="85.5" width="174" height="94.5" as="geometry" />
        </mxCell>
        <mxCell id="VQFhBbpkEpRgzwUV9zI0-125" value="&lt;p style=&quot;margin: 0px; margin-top: 4px; text-align: center; text-decoration: underline;&quot;&gt;Enclosure Management&lt;/p&gt;&lt;hr&gt;&lt;p style=&quot;text-align: left; margin: 0px 0px 0px 8px;&quot;&gt;&lt;/p&gt;&lt;ul&gt;&lt;li style=&quot;text-align: left;&quot;&gt;Provisioning (QR Code Reading)&lt;/li&gt;&lt;li style=&quot;text-align: left;&quot;&gt;NFC Secure Entry&lt;/li&gt;&lt;li style=&quot;text-align: left;&quot;&gt;Battery Monitoring&lt;/li&gt;&lt;li style=&quot;text-align: left;&quot;&gt;Pump/Cannister Monitoring&lt;/li&gt;&lt;li style=&quot;text-align: left;&quot;&gt;Event Logging&lt;/li&gt;&lt;/ul&gt;&lt;p&gt;&lt;/p&gt;" style="verticalAlign=middle;align=center;overflow=fill;fontSize=12;fontFamily=Helvetica;html=1;rounded=1;fontStyle=1;strokeWidth=3;fillColor=#3399FF;movable=1;resizable=1;rotatable=1;deletable=1;editable=1;locked=0;connectable=1;" vertex="1" parent="1">
          <mxGeometry x="167" y="240" width="250" height="130" as="geometry" />
        </mxCell>
        <mxCell id="VQFhBbpkEpRgzwUV9zI0-126" value="&lt;p style=&quot;margin: 0px; margin-top: 4px; text-align: center; text-decoration: underline;&quot;&gt;Display&lt;/p&gt;&lt;p style=&quot;margin: 0px; margin-top: 4px; text-align: center; text-decoration: underline;&quot;&gt;Driver&lt;/p&gt;&lt;hr&gt;&lt;p style=&quot;margin: 0px; margin-left: 8px;&quot;&gt;&lt;br&gt;&lt;/p&gt;" style="verticalAlign=middle;align=center;overflow=fill;fontSize=12;fontFamily=Helvetica;html=1;rounded=1;fontStyle=1;strokeWidth=3;fillColor=#3399FF;movable=1;resizable=1;rotatable=1;deletable=1;editable=1;locked=0;connectable=1;" vertex="1" parent="1">
          <mxGeometry x="167" y="450" width="134" height="100" as="geometry" />
        </mxCell>
        <mxCell id="VQFhBbpkEpRgzwUV9zI0-142" value="&lt;p style=&quot;margin: 0px; margin-top: 4px; text-align: center; text-decoration: underline;&quot;&gt;Keyboard&lt;/p&gt;&lt;p style=&quot;margin: 0px; margin-top: 4px; text-align: center; text-decoration: underline;&quot;&gt;Driver&lt;/p&gt;&lt;hr&gt;&lt;p style=&quot;margin: 0px; margin-left: 8px;&quot;&gt;&lt;br&gt;&lt;/p&gt;" style="verticalAlign=middle;align=center;overflow=fill;fontSize=12;fontFamily=Helvetica;html=1;rounded=1;fontStyle=1;strokeWidth=3;fillColor=#3399FF;movable=1;resizable=1;rotatable=1;deletable=1;editable=1;locked=0;connectable=1;" vertex="1" parent="1">
          <mxGeometry x="167" y="560" width="134" height="100" as="geometry" />
        </mxCell>
        <mxCell id="VQFhBbpkEpRgzwUV9zI0-144" value="&lt;p style=&quot;margin: 0px; margin-top: 4px; text-align: center; text-decoration: underline;&quot;&gt;Local&lt;/p&gt;&lt;p style=&quot;margin: 0px; margin-top: 4px; text-align: center; text-decoration: underline;&quot;&gt;Console Inerface&lt;/p&gt;&lt;hr&gt;&lt;p style=&quot;margin: 0px; margin-left: 8px;&quot;&gt;&lt;br&gt;&lt;/p&gt;" style="verticalAlign=middle;align=center;overflow=fill;fontSize=12;fontFamily=Helvetica;html=1;rounded=1;fontStyle=1;strokeWidth=3;fillColor=#3399FF;movable=1;resizable=1;rotatable=1;deletable=1;editable=1;locked=0;connectable=1;" vertex="1" parent="1">
          <mxGeometry x="400" y="515" width="134" height="100" as="geometry" />
        </mxCell>
        <mxCell id="VQFhBbpkEpRgzwUV9zI0-145" value="" style="shape=flexArrow;endArrow=classic;html=1;rounded=0;exitX=1;exitY=0.5;exitDx=0;exitDy=0;entryX=0;entryY=0.75;entryDx=0;entryDy=0;" edge="1" parent="1" source="VQFhBbpkEpRgzwUV9zI0-142" target="VQFhBbpkEpRgzwUV9zI0-144">
          <mxGeometry width="50" height="50" relative="1" as="geometry">
            <mxPoint x="334.5" y="610" as="sourcePoint" />
            <mxPoint x="470.5" y="650" as="targetPoint" />
          </mxGeometry>
        </mxCell>
        <mxCell id="VQFhBbpkEpRgzwUV9zI0-146" value="" style="shape=flexArrow;endArrow=classic;html=1;rounded=0;entryX=1;entryY=0.5;entryDx=0;entryDy=0;exitX=0;exitY=0.25;exitDx=0;exitDy=0;" edge="1" parent="1" source="VQFhBbpkEpRgzwUV9zI0-144" target="VQFhBbpkEpRgzwUV9zI0-126">
          <mxGeometry width="50" height="50" relative="1" as="geometry">
            <mxPoint x="380.5" y="480" as="sourcePoint" />
            <mxPoint x="344.5" y="606" as="targetPoint" />
          </mxGeometry>
        </mxCell>
        <mxCell id="VQFhBbpkEpRgzwUV9zI0-150" value="&lt;p style=&quot;margin: 0px; margin-top: 4px; text-align: center; text-decoration: underline;&quot;&gt;Camera Driver&lt;/p&gt;&lt;hr&gt;&lt;p style=&quot;margin: 0px; margin-left: 8px;&quot;&gt;&lt;br&gt;&lt;/p&gt;" style="verticalAlign=middle;align=center;overflow=fill;fontSize=12;fontFamily=Helvetica;html=1;rounded=1;fontStyle=1;strokeWidth=3;fillColor=#3399FF;movable=1;resizable=1;rotatable=1;deletable=1;editable=1;locked=0;connectable=1;" vertex="1" parent="1">
          <mxGeometry x="170.5" y="85" width="134" height="100" as="geometry" />
        </mxCell>
        <mxCell id="VQFhBbpkEpRgzwUV9zI0-151" value="" style="shape=flexArrow;endArrow=classic;html=1;rounded=0;exitX=0;exitY=0.5;exitDx=0;exitDy=0;" edge="1" parent="1" source="VQFhBbpkEpRgzwUV9zI0-108" target="VQFhBbpkEpRgzwUV9zI0-150">
          <mxGeometry width="50" height="50" relative="1" as="geometry">
            <mxPoint x="267" y="525" as="sourcePoint" />
            <mxPoint x="184" y="510" as="targetPoint" />
          </mxGeometry>
        </mxCell>
        <mxCell id="VQFhBbpkEpRgzwUV9zI0-152" value="" style="sketch=0;pointerEvents=1;shadow=0;dashed=0;html=1;strokeColor=#9673a6;fillColor=#e1d5e7;labelPosition=center;verticalLabelPosition=bottom;verticalAlign=top;outlineConnect=0;align=center;shape=mxgraph.office.devices.lcd_monitor;" vertex="1" parent="1">
          <mxGeometry x="30" y="469" width="80" height="62" as="geometry" />
        </mxCell>
        <mxCell id="VQFhBbpkEpRgzwUV9zI0-154" value="" style="sketch=0;aspect=fixed;pointerEvents=1;shadow=0;dashed=0;html=1;strokeColor=#9673a6;labelPosition=center;verticalLabelPosition=bottom;verticalAlign=top;align=center;fillColor=#e1d5e7;shape=mxgraph.mscae.enterprise.keyboard" vertex="1" parent="1">
          <mxGeometry x="45" y="595" width="50" height="30" as="geometry" />
        </mxCell>
        <mxCell id="VQFhBbpkEpRgzwUV9zI0-155" value="" style="shape=flexArrow;endArrow=classic;html=1;rounded=0;exitX=1;exitY=0.5;exitDx=0;exitDy=0;entryX=0;entryY=0.5;entryDx=0;entryDy=0;exitPerimeter=0;" edge="1" parent="1" source="VQFhBbpkEpRgzwUV9zI0-154" target="VQFhBbpkEpRgzwUV9zI0-142">
          <mxGeometry width="50" height="50" relative="1" as="geometry">
            <mxPoint x="345" y="620" as="sourcePoint" />
            <mxPoint x="427" y="575" as="targetPoint" />
          </mxGeometry>
        </mxCell>
        <mxCell id="VQFhBbpkEpRgzwUV9zI0-156" value="" style="shape=flexArrow;endArrow=classic;html=1;rounded=0;exitX=0;exitY=0.5;exitDx=0;exitDy=0;" edge="1" parent="1" source="VQFhBbpkEpRgzwUV9zI0-126" target="VQFhBbpkEpRgzwUV9zI0-152">
          <mxGeometry width="50" height="50" relative="1" as="geometry">
            <mxPoint x="105" y="610" as="sourcePoint" />
            <mxPoint x="160" y="480" as="targetPoint" />
          </mxGeometry>
        </mxCell>
        <mxCell id="VQFhBbpkEpRgzwUV9zI0-157" value="" style="verticalAlign=top;verticalLabelPosition=bottom;labelPosition=center;align=center;html=1;outlineConnect=0;fillColor=#e1d5e7;strokeColor=#9673a6;gradientDirection=north;strokeWidth=2;shape=mxgraph.networks.security_camera;" vertex="1" parent="1">
          <mxGeometry x="20" y="97.5" width="100" height="75" as="geometry" />
        </mxCell>
        <mxCell id="VQFhBbpkEpRgzwUV9zI0-158" value="" style="shape=flexArrow;endArrow=classic;html=1;rounded=0;exitX=0;exitY=0.5;exitDx=0;exitDy=0;" edge="1" parent="1" source="VQFhBbpkEpRgzwUV9zI0-150" target="VQFhBbpkEpRgzwUV9zI0-157">
          <mxGeometry width="50" height="50" relative="1" as="geometry">
            <mxPoint x="211" y="510" as="sourcePoint" />
            <mxPoint x="120" y="510" as="targetPoint" />
          </mxGeometry>
        </mxCell>
        <mxCell id="VQFhBbpkEpRgzwUV9zI0-161" value="&lt;b&gt;NFC&lt;/b&gt;" style="verticalLabelPosition=bottom;aspect=fixed;html=1;shape=mxgraph.salesforce.iot;fillColor=#e1d5e7;strokeColor=#9673a6;" vertex="1" parent="1">
          <mxGeometry x="35" y="200" width="60" height="60" as="geometry" />
        </mxCell>
        <mxCell id="VQFhBbpkEpRgzwUV9zI0-163" value="" style="shape=flexArrow;endArrow=classic;html=1;rounded=0;exitX=0.967;exitY=0.517;exitDx=0;exitDy=0;exitPerimeter=0;entryX=0;entryY=0.25;entryDx=0;entryDy=0;" edge="1" parent="1" source="VQFhBbpkEpRgzwUV9zI0-161" target="VQFhBbpkEpRgzwUV9zI0-125">
          <mxGeometry width="50" height="50" relative="1" as="geometry">
            <mxPoint x="560" y="620" as="sourcePoint" />
            <mxPoint x="610" y="570" as="targetPoint" />
          </mxGeometry>
        </mxCell>
        <mxCell id="VQFhBbpkEpRgzwUV9zI0-168" value="" style="shape=flexArrow;endArrow=classic;html=1;rounded=0;exitX=1;exitY=0.5;exitDx=0;exitDy=0;" edge="1" parent="1" source="VQFhBbpkEpRgzwUV9zI0-120" target="VQFhBbpkEpRgzwUV9zI0-165">
          <mxGeometry width="50" height="50" relative="1" as="geometry">
            <mxPoint x="560" y="620" as="sourcePoint" />
            <mxPoint x="610" y="570" as="targetPoint" />
          </mxGeometry>
        </mxCell>
        <mxCell id="VQFhBbpkEpRgzwUV9zI0-169" value="" style="shape=flexArrow;endArrow=classic;html=1;rounded=0;entryX=0;entryY=0.5;entryDx=0;entryDy=0;exitX=1;exitY=0.5;exitDx=0;exitDy=0;" edge="1" parent="1" source="VQFhBbpkEpRgzwUV9zI0-108" target="VQFhBbpkEpRgzwUV9zI0-120">
          <mxGeometry width="50" height="50" relative="1" as="geometry">
            <mxPoint x="560" y="620" as="sourcePoint" />
            <mxPoint x="610" y="570" as="targetPoint" />
          </mxGeometry>
        </mxCell>
        <mxCell id="VQFhBbpkEpRgzwUV9zI0-170" value="" style="shape=image;html=1;verticalAlign=top;verticalLabelPosition=bottom;labelBackgroundColor=#ffffff;imageAspect=0;aspect=fixed;image=https://cdn2.iconfinder.com/data/icons/medical-tools/32/Spray.png" vertex="1" parent="1">
          <mxGeometry x="1030" y="247" width="86" height="86" as="geometry" />
        </mxCell>
        <mxCell id="VQFhBbpkEpRgzwUV9zI0-171" value="" style="shape=flexArrow;endArrow=classic;html=1;rounded=0;entryX=0;entryY=0.5;entryDx=0;entryDy=0;exitX=1;exitY=0.5;exitDx=0;exitDy=0;" edge="1" parent="1" source="VQFhBbpkEpRgzwUV9zI0-119" target="VQFhBbpkEpRgzwUV9zI0-170">
          <mxGeometry width="50" height="50" relative="1" as="geometry">
            <mxPoint x="560" y="620" as="sourcePoint" />
            <mxPoint x="610" y="570" as="targetPoint" />
          </mxGeometry>
        </mxCell>
        <mxCell id="VQFhBbpkEpRgzwUV9zI0-177" value="" style="shape=flexArrow;endArrow=classic;startArrow=classic;html=1;rounded=0;entryX=0.25;entryY=0;entryDx=0;entryDy=0;exitX=1.006;exitY=0.679;exitDx=0;exitDy=0;exitPerimeter=0;" edge="1" parent="1" source="VQFhBbpkEpRgzwUV9zI0-174" target="VQFhBbpkEpRgzwUV9zI0-115">
          <mxGeometry width="100" height="100" relative="1" as="geometry">
            <mxPoint x="1090" y="590" as="sourcePoint" />
            <mxPoint x="630" y="540" as="targetPoint" />
          </mxGeometry>
        </mxCell>
        <mxCell id="VQFhBbpkEpRgzwUV9zI0-183" value="" style="group" vertex="1" connectable="0" parent="1">
          <mxGeometry x="870" y="550" width="93.75" height="190" as="geometry" />
        </mxCell>
        <mxCell id="VQFhBbpkEpRgzwUV9zI0-106" value="&lt;b&gt;WiFi&lt;/b&gt;" style="verticalLabelPosition=bottom;aspect=fixed;html=1;shape=mxgraph.salesforce.iot;fillColor=#e1d5e7;strokeColor=#9673a6;" vertex="1" parent="VQFhBbpkEpRgzwUV9zI0-183">
          <mxGeometry x="20" y="100" width="50" height="50" as="geometry" />
        </mxCell>
        <mxCell id="VQFhBbpkEpRgzwUV9zI0-141" value="&lt;font color=&quot;#000000&quot;&gt;&lt;b&gt;Cellular&lt;/b&gt;&lt;/font&gt;" style="fontColor=#0066CC;verticalAlign=top;verticalLabelPosition=bottom;labelPosition=center;align=center;html=1;outlineConnect=0;fillColor=#CCCCCC;strokeColor=#9673A6;gradientColor=none;gradientDirection=north;strokeWidth=2;shape=mxgraph.networks.radio_tower;" vertex="1" parent="VQFhBbpkEpRgzwUV9zI0-183">
          <mxGeometry x="31.25" y="15" width="27.5" height="51" as="geometry" />
        </mxCell>
        <mxCell id="VQFhBbpkEpRgzwUV9zI0-174" value="" style="shape=requiredInterface;html=1;verticalLabelPosition=bottom;sketch=0;strokeWidth=2;strokeColor=#9673A6;" vertex="1" parent="VQFhBbpkEpRgzwUV9zI0-183">
          <mxGeometry x="50" width="43.75" height="190" as="geometry" />
        </mxCell>
        <mxCell id="VQFhBbpkEpRgzwUV9zI0-182" value="" style="shape=requiredInterface;html=1;verticalLabelPosition=bottom;sketch=0;strokeWidth=2;strokeColor=#9673A6;rotation=-180;" vertex="1" parent="VQFhBbpkEpRgzwUV9zI0-183">
          <mxGeometry width="43.75" height="190" as="geometry" />
        </mxCell>
        <mxCell id="VQFhBbpkEpRgzwUV9zI0-184" value="" style="shape=flexArrow;endArrow=classic;startArrow=classic;html=1;rounded=0;exitX=1;exitY=0.5;exitDx=0;exitDy=0;" edge="1" parent="1" source="VQFhBbpkEpRgzwUV9zI0-117">
          <mxGeometry width="100" height="100" relative="1" as="geometry">
            <mxPoint x="954" y="661" as="sourcePoint" />
            <mxPoint x="870" y="600" as="targetPoint" />
          </mxGeometry>
        </mxCell>
        <mxCell id="VQFhBbpkEpRgzwUV9zI0-186" value="" style="group" vertex="1" connectable="0" parent="1">
          <mxGeometry x="1040" y="102.5" width="119" height="122.5" as="geometry" />
        </mxCell>
        <mxCell id="VQFhBbpkEpRgzwUV9zI0-167" value="" style="group" vertex="1" connectable="0" parent="VQFhBbpkEpRgzwUV9zI0-186">
          <mxGeometry width="119" height="84" as="geometry" />
        </mxCell>
        <mxCell id="VQFhBbpkEpRgzwUV9zI0-165" value="" style="shape=mxgraph.electrical.electro-mechanical.motor_2;html=1;shadow=0;dashed=0;align=center;fontSize=30;strokeWidth=3;strokeColor=#9673A6;fillColor=#E1D5E7;" vertex="1" parent="VQFhBbpkEpRgzwUV9zI0-167">
          <mxGeometry width="100" height="60" as="geometry" />
        </mxCell>
        <mxCell id="VQFhBbpkEpRgzwUV9zI0-166" value="" style="shape=mxgraph.electrical.electro-mechanical.motor_2;html=1;shadow=0;dashed=0;align=center;fontSize=30;strokeWidth=3;strokeColor=#9673A6;fillColor=#E1D5E7;" vertex="1" parent="VQFhBbpkEpRgzwUV9zI0-167">
          <mxGeometry x="19" y="24" width="100" height="60" as="geometry" />
        </mxCell>
        <mxCell id="VQFhBbpkEpRgzwUV9zI0-185" value="&lt;b&gt;Pan/Tilt&lt;br&gt;Motors&lt;/b&gt;" style="text;html=1;align=center;verticalAlign=middle;resizable=0;points=[];autosize=1;strokeColor=none;fillColor=none;" vertex="1" parent="VQFhBbpkEpRgzwUV9zI0-186">
          <mxGeometry x="24.5" y="82.5" width="70" height="40" as="geometry" />
        </mxCell>
        <mxCell id="VQFhBbpkEpRgzwUV9zI0-187" value="&lt;p style=&quot;margin: 0px; margin-top: 4px; text-align: center; text-decoration: underline;&quot;&gt;Lights/Siren Controller&lt;/p&gt;&lt;hr&gt;&lt;p style=&quot;margin: 0px; margin-left: 8px;&quot;&gt;&lt;br&gt;&lt;/p&gt;" style="verticalAlign=middle;align=center;overflow=fill;fontSize=12;fontFamily=Helvetica;html=1;rounded=1;fontStyle=1;strokeWidth=3;fillColor=#3399FF;movable=1;resizable=1;rotatable=1;deletable=1;editable=1;locked=0;connectable=1;" vertex="1" parent="1">
          <mxGeometry x="790" y="370" width="164" height="100" as="geometry" />
        </mxCell>
      </root>
    </mxGraphModel>
  </diagram>
</mxfile>
